<svg width="100" height="200" viewBox="0 0 100 200" fill="none" xmlns="http://www.w3.org/2000/svg">
<circle cx="0.5" cy="1.5" r="1.5" fill="#278EA5"/>
<circle cx="9.5" cy="1.5" r="1.5" fill="#278EA5"/>
<circle cx="18.5" cy="1.5" r="1.5" fill="#278EA5"/>
<circle cx="27.5" cy="1.5" r="1.5" fill="#278EA5"/>
<circle cx="36.5" cy="1.5" r="1.5" fill="#278EA5"/>
<circle cx="45.5" cy="1.5" r="1.5" fill="#278EA5"/>
<circle cx="54.5" cy="1.5" r="1.5" fill="#278EA5"/>
<circle cx="63.5" cy="1.5" r="1.5" fill="#278EA5"/>
<circle cx="72.5" cy="1.5" r="1.5" fill="#278EA5"/>
<circle cx="81.5" cy="1.5" r="1.5" fill="#278EA5"/>
<circle cx="90.5" cy="1.5" r="1.5" fill="#278EA5"/>
<circle cx="0.5" cy="10.5" r="1.5" fill="#278EA5"/>
<circle cx="9.5" cy="10.5" r="1.5" fill="#278EA5"/>
<circle cx="18.5" cy="10.5" r="1.5" fill="#278EA5"/>
<circle cx="27.5" cy="10.5" r="1.5" fill="#278EA5"/>
<circle cx="36.5" cy="10.5" r="1.5" fill="#278EA5"/>
<circle cx="45.5" cy="10.5" r="1.5" fill="#278EA5"/>
<circle cx="54.5" cy="10.5" r="1.5" fill="#278EA5"/>
<circle cx="63.5" cy="10.5" r="1.5" fill="#278EA5"/>
<circle cx="72.5" cy="10.5" r="1.5" fill="#278EA5"/>
<circle cx="81.5" cy="10.5" r="1.5" fill="#278EA5"/>
<circle cx="90.5" cy="10.5" r="1.5" fill="#278EA5"/>
<circle cx="0.5" cy="19.5" r="1.5" fill="#278EA5"/>
<circle cx="9.5" cy="19.5" r="1.5" fill="#278EA5"/>
<circle cx="18.5" cy="19.5" r="1.5" fill="#278EA5"/>
<circle cx="27.5" cy="19.5" r="1.5" fill="#278EA5"/>
<circle cx="36.5" cy="19.5" r="1.5" fill="#278EA5"/>
<circle cx="45.5" cy="19.5" r="1.5" fill="#278EA5"/>
<circle cx="54.5" cy="19.5" r="1.5" fill="#278EA5"/>
<circle cx="63.5" cy="19.5" r="1.5" fill="#278EA5"/>
<circle cx="72.5" cy="19.5" r="1.5" fill="#278EA5"/>
<circle cx="81.5" cy="19.5" r="1.5" fill="#278EA5"/>
<circle cx="90.5" cy="19.5" r="1.5" fill="#278EA5"/>
<circle cx="0.5" cy="28.5" r="1.5" fill="#278EA5"/>
<circle cx="9.5" cy="28.5" r="1.5" fill="#278EA5"/>
<circle cx="18.5" cy="28.5" r="1.5" fill="#278EA5"/>
<circle cx="27.5" cy="28.5" r="1.5" fill="#278EA5"/>
<circle cx="36.5" cy="28.5" r="1.5" fill="#278EA5"/>
<circle cx="45.5" cy="28.5" r="1.5" fill="#278EA5"/>
<circle cx="54.5" cy="28.5" r="1.5" fill="#278EA5"/>
<circle cx="63.5" cy="28.5" r="1.5" fill="#278EA5"/>
<circle cx="72.5" cy="28.5" r="1.5" fill="#278EA5"/>
<circle cx="81.5" cy="28.5" r="1.5" fill="#278EA5"/>
<circle cx="90.5" cy="28.5" r="1.5" fill="#278EA5"/>
<circle cx="0.5" cy="37.5" r="1.5" fill="#278EA5"/>
<circle cx="9.5" cy="37.5" r="1.5" fill="#278EA5"/>
<circle cx="18.5" cy="37.5" r="1.5" fill="#278EA5"/>
<circle cx="27.5" cy="37.5" r="1.5" fill="#278EA5"/>
<circle cx="36.5" cy="37.5" r="1.5" fill="#278EA5"/>
<circle cx="45.5" cy="37.5" r="1.5" fill="#278EA5"/>
<circle cx="54.5" cy="37.5" r="1.5" fill="#278EA5"/>
<circle cx="63.5" cy="37.5" r="1.5" fill="#278EA5"/>
<circle cx="72.5" cy="37.5" r="1.5" fill="#278EA5"/>
<circle cx="81.5" cy="37.5" r="1.5" fill="#278EA5"/>
<circle cx="90.5" cy="37.5" r="1.5" fill="#278EA5"/>
<circle cx="0.5" cy="46.5" r="1.5" fill="#278EA5"/>
<circle cx="9.5" cy="46.5" r="1.5" fill="#278EA5"/>
<circle cx="18.5" cy="46.5" r="1.5" fill="#278EA5"/>
<circle cx="27.5" cy="46.5" r="1.5" fill="#278EA5"/>
<circle cx="36.5" cy="46.5" r="1.5" fill="#278EA5"/>
<circle cx="45.5" cy="46.5" r="1.5" fill="#278EA5"/>
<circle cx="54.5" cy="46.5" r="1.5" fill="#278EA5"/>
<circle cx="63.5" cy="46.5" r="1.5" fill="#278EA5"/>
<circle cx="72.5" cy="46.5" r="1.5" fill="#278EA5"/>
<circle cx="81.5" cy="46.5" r="1.5" fill="#278EA5"/>
<circle cx="90.5" cy="46.5" r="1.5" fill="#278EA5"/>
<circle cx="0.5" cy="55.5" r="1.5" fill="#278EA5"/>
<circle cx="9.5" cy="55.5" r="1.5" fill="#278EA5"/>
<circle cx="18.5" cy="55.5" r="1.5" fill="#278EA5"/>
<circle cx="27.5" cy="55.5" r="1.5" fill="#278EA5"/>
<circle cx="36.5" cy="55.5" r="1.5" fill="#278EA5"/>
<circle cx="45.5" cy="55.5" r="1.5" fill="#278EA5"/>
<circle cx="54.5" cy="55.5" r="1.5" fill="#278EA5"/>
<circle cx="63.5" cy="55.5" r="1.5" fill="#278EA5"/>
<circle cx="72.5" cy="55.5" r="1.5" fill="#278EA5"/>
<circle cx="81.5" cy="55.5" r="1.5" fill="#278EA5"/>
<circle cx="90.5" cy="55.5" r="1.5" fill="#278EA5"/>
<circle cx="0.5" cy="64.5" r="1.5" fill="#278EA5"/>
<circle cx="9.5" cy="64.5" r="1.5" fill="#278EA5"/>
<circle cx="18.5" cy="64.5" r="1.5" fill="#278EA5"/>
<circle cx="27.5" cy="64.5" r="1.5" fill="#278EA5"/>
<circle cx="36.5" cy="64.5" r="1.5" fill="#278EA5"/>
<circle cx="45.5" cy="64.5" r="1.5" fill="#278EA5"/>
<circle cx="54.5" cy="64.5" r="1.5" fill="#278EA5"/>
<circle cx="63.5" cy="64.5" r="1.5" fill="#278EA5"/>
<circle cx="72.5" cy="64.5" r="1.5" fill="#278EA5"/>
<circle cx="81.5" cy="64.5" r="1.5" fill="#278EA5"/>
<circle cx="90.5" cy="64.5" r="1.5" fill="#278EA5"/>
<circle cx="0.5" cy="73.5" r="1.5" fill="#278EA5"/>
<circle cx="9.5" cy="73.5" r="1.5" fill="#278EA5"/>
<circle cx="18.5" cy="73.5" r="1.5" fill="#278EA5"/>
<circle cx="27.5" cy="73.5" r="1.5" fill="#278EA5"/>
<circle cx="36.5" cy="73.5" r="1.5" fill="#278EA5"/>
<circle cx="45.5" cy="73.5" r="1.5" fill="#278EA5"/>
<circle cx="54.5" cy="73.5" r="1.5" fill="#278EA5"/>
<circle cx="63.5" cy="73.5" r="1.5" fill="#278EA5"/>
<circle cx="72.5" cy="73.5" r="1.5" fill="#278EA5"/>
<circle cx="81.5" cy="73.5" r="1.5" fill="#278EA5"/>
<circle cx="90.5" cy="73.5" r="1.5" fill="#278EA5"/>
<circle cx="0.5" cy="82.5" r="1.5" fill="#278EA5"/>
<circle cx="9.5" cy="82.5" r="1.5" fill="#278EA5"/>
<circle cx="18.5" cy="82.5" r="1.5" fill="#278EA5"/>
<circle cx="27.5" cy="82.5" r="1.5" fill="#278EA5"/>
<circle cx="36.5" cy="82.5" r="1.5" fill="#278EA5"/>
<circle cx="45.5" cy="82.5" r="1.5" fill="#278EA5"/>
<circle cx="54.5" cy="82.5" r="1.5" fill="#278EA5"/>
<circle cx="63.5" cy="82.5" r="1.5" fill="#278EA5"/>
<circle cx="72.5" cy="82.5" r="1.5" fill="#278EA5"/>
<circle cx="81.5" cy="82.5" r="1.5" fill="#278EA5"/>
<circle cx="90.5" cy="82.5" r="1.5" fill="#278EA5"/>
<circle cx="0.5" cy="91.5" r="1.5" fill="#278EA5"/>
<circle cx="9.5" cy="91.5" r="1.5" fill="#278EA5"/>
<circle cx="18.5" cy="91.5" r="1.5" fill="#278EA5"/>
<circle cx="27.5" cy="91.5" r="1.5" fill="#278EA5"/>
<circle cx="36.5" cy="91.5" r="1.5" fill="#278EA5"/>
<circle cx="45.5" cy="91.5" r="1.5" fill="#278EA5"/>
<circle cx="54.5" cy="91.5" r="1.5" fill="#278EA5"/>
<circle cx="63.5" cy="91.5" r="1.5" fill="#278EA5"/>
<circle cx="72.5" cy="91.5" r="1.5" fill="#278EA5"/>
<circle cx="81.5" cy="91.5" r="1.5" fill="#278EA5"/>
<circle cx="90.5" cy="91.5" r="1.5" fill="#278EA5"/>
<circle cx="0.5" cy="100.5" r="1.5" fill="#278EA5"/>
<circle cx="9.5" cy="100.5" r="1.5" fill="#278EA5"/>
<circle cx="18.5" cy="100.5" r="1.5" fill="#278EA5"/>
<circle cx="27.5" cy="100.5" r="1.5" fill="#278EA5"/>
<circle cx="36.5" cy="100.5" r="1.5" fill="#278EA5"/>
<circle cx="45.5" cy="100.5" r="1.5" fill="#278EA5"/>
<circle cx="54.5" cy="100.5" r="1.5" fill="#278EA5"/>
<circle cx="63.5" cy="100.5" r="1.5" fill="#278EA5"/>
<circle cx="72.5" cy="100.5" r="1.5" fill="#278EA5"/>
<circle cx="81.5" cy="100.5" r="1.5" fill="#278EA5"/>
<circle cx="90.5" cy="100.5" r="1.5" fill="#278EA5"/>
<circle cx="0.5" cy="109.5" r="1.5" fill="#278EA5"/>
<circle cx="9.5" cy="109.5" r="1.5" fill="#278EA5"/>
<circle cx="18.5" cy="109.5" r="1.5" fill="#278EA5"/>
<circle cx="27.5" cy="109.5" r="1.5" fill="#278EA5"/>
<circle cx="36.5" cy="109.5" r="1.5" fill="#278EA5"/>
<circle cx="45.5" cy="109.5" r="1.5" fill="#278EA5"/>
<circle cx="54.5" cy="109.5" r="1.5" fill="#278EA5"/>
<circle cx="63.5" cy="109.5" r="1.5" fill="#278EA5"/>
<circle cx="72.5" cy="109.5" r="1.5" fill="#278EA5"/>
<circle cx="81.5" cy="109.5" r="1.5" fill="#278EA5"/>
<circle cx="90.5" cy="109.5" r="1.5" fill="#278EA5"/>
<circle cx="0.5" cy="118.5" r="1.5" fill="#278EA5"/>
<circle cx="9.5" cy="118.5" r="1.5" fill="#278EA5"/>
<circle cx="18.5" cy="118.5" r="1.5" fill="#278EA5"/>
<circle cx="27.5" cy="118.5" r="1.5" fill="#278EA5"/>
<circle cx="36.5" cy="118.5" r="1.5" fill="#278EA5"/>
<circle cx="45.5" cy="118.5" r="1.5" fill="#278EA5"/>
<circle cx="54.5" cy="118.5" r="1.5" fill="#278EA5"/>
<circle cx="63.5" cy="118.5" r="1.5" fill="#278EA5"/>
<circle cx="72.5" cy="118.5" r="1.5" fill="#278EA5"/>
<circle cx="81.5" cy="118.5" r="1.5" fill="#278EA5"/>
<circle cx="90.5" cy="118.5" r="1.5" fill="#278EA5"/>
<circle cx="0.5" cy="127.5" r="1.5" fill="#278EA5"/>
<circle cx="9.5" cy="127.5" r="1.5" fill="#278EA5"/>
<circle cx="18.5" cy="127.5" r="1.5" fill="#278EA5"/>
<circle cx="27.5" cy="127.5" r="1.5" fill="#278EA5"/>
<circle cx="36.5" cy="127.5" r="1.5" fill="#278EA5"/>
<circle cx="45.5" cy="127.5" r="1.5" fill="#278EA5"/>
<circle cx="54.5" cy="127.5" r="1.5" fill="#278EA5"/>
<circle cx="63.5" cy="127.5" r="1.5" fill="#278EA5"/>
<circle cx="72.5" cy="127.5" r="1.5" fill="#278EA5"/>
<circle cx="81.5" cy="127.5" r="1.5" fill="#278EA5"/>
<circle cx="90.5" cy="127.5" r="1.5" fill="#278EA5"/>
<circle cx="0.5" cy="136.5" r="1.5" fill="#278EA5"/>
<circle cx="9.5" cy="136.5" r="1.5" fill="#278EA5"/>
<circle cx="18.5" cy="136.5" r="1.5" fill="#278EA5"/>
<circle cx="27.5" cy="136.5" r="1.5" fill="#278EA5"/>
<circle cx="36.5" cy="136.5" r="1.5" fill="#278EA5"/>
<circle cx="45.5" cy="136.5" r="1.5" fill="#278EA5"/>
<circle cx="54.5" cy="136.5" r="1.5" fill="#278EA5"/>
<circle cx="63.5" cy="136.5" r="1.5" fill="#278EA5"/>
<circle cx="72.5" cy="136.5" r="1.5" fill="#278EA5"/>
<circle cx="81.5" cy="136.5" r="1.5" fill="#278EA5"/>
<circle cx="90.5" cy="136.5" r="1.5" fill="#278EA5"/>
<circle cx="0.5" cy="145.5" r="1.5" fill="#278EA5"/>
<circle cx="9.5" cy="145.5" r="1.5" fill="#278EA5"/>
<circle cx="18.5" cy="145.5" r="1.5" fill="#278EA5"/>
<circle cx="27.5" cy="145.5" r="1.5" fill="#278EA5"/>
<circle cx="36.5" cy="145.5" r="1.5" fill="#278EA5"/>
<circle cx="45.5" cy="145.5" r="1.5" fill="#278EA5"/>
<circle cx="54.5" cy="145.5" r="1.5" fill="#278EA5"/>
<circle cx="63.5" cy="145.5" r="1.5" fill="#278EA5"/>
<circle cx="72.5" cy="145.5" r="1.5" fill="#278EA5"/>
<circle cx="81.5" cy="145.5" r="1.5" fill="#278EA5"/>
<circle cx="90.5" cy="145.5" r="1.5" fill="#278EA5"/>
<circle cx="0.5" cy="154.5" r="1.5" fill="#278EA5"/>
<circle cx="9.5" cy="154.5" r="1.5" fill="#278EA5"/>
<circle cx="18.5" cy="154.5" r="1.5" fill="#278EA5"/>
<circle cx="27.5" cy="154.5" r="1.5" fill="#278EA5"/>
<circle cx="36.5" cy="154.5" r="1.5" fill="#278EA5"/>
<circle cx="45.5" cy="154.5" r="1.5" fill="#278EA5"/>
<circle cx="54.5" cy="154.5" r="1.5" fill="#278EA5"/>
<circle cx="63.5" cy="154.5" r="1.5" fill="#278EA5"/>
<circle cx="72.5" cy="154.5" r="1.5" fill="#278EA5"/>
<circle cx="81.5" cy="154.5" r="1.5" fill="#278EA5"/>
<circle cx="90.5" cy="154.5" r="1.5" fill="#278EA5"/>
<circle cx="0.5" cy="163.5" r="1.5" fill="#278EA5"/>
<circle cx="9.5" cy="163.5" r="1.5" fill="#278EA5"/>
<circle cx="18.5" cy="163.5" r="1.5" fill="#278EA5"/>
<circle cx="27.5" cy="163.5" r="1.5" fill="#278EA5"/>
<circle cx="36.5" cy="163.5" r="1.5" fill="#278EA5"/>
<circle cx="45.5" cy="163.5" r="1.5" fill="#278EA5"/>
<circle cx="54.5" cy="163.5" r="1.5" fill="#278EA5"/>
<circle cx="63.5" cy="163.5" r="1.5" fill="#278EA5"/>
<circle cx="72.5" cy="163.5" r="1.5" fill="#278EA5"/>
<circle cx="81.5" cy="163.5" r="1.5" fill="#278EA5"/>
<circle cx="90.5" cy="163.5" r="1.5" fill="#278EA5"/>
<circle cx="0.5" cy="172.5" r="1.5" fill="#278EA5"/>
<circle cx="9.5" cy="172.5" r="1.5" fill="#278EA5"/>
<circle cx="18.5" cy="172.5" r="1.5" fill="#278EA5"/>
<circle cx="27.5" cy="172.5" r="1.5" fill="#278EA5"/>
<circle cx="36.5" cy="172.5" r="1.5" fill="#278EA5"/>
<circle cx="45.5" cy="172.5" r="1.5" fill="#278EA5"/>
<circle cx="54.5" cy="172.5" r="1.5" fill="#278EA5"/>
<circle cx="63.5" cy="172.5" r="1.5" fill="#278EA5"/>
<circle cx="72.5" cy="172.5" r="1.5" fill="#278EA5"/>
<circle cx="81.5" cy="172.5" r="1.5" fill="#278EA5"/>
<circle cx="90.5" cy="172.5" r="1.5" fill="#278EA5"/>
<circle cx="0.5" cy="181.5" r="1.5" fill="#278EA5"/>
<circle cx="9.5" cy="181.5" r="1.5" fill="#278EA5"/>
<circle cx="18.5" cy="181.5" r="1.5" fill="#278EA5"/>
<circle cx="27.5" cy="181.5" r="1.5" fill="#278EA5"/>
<circle cx="36.5" cy="181.5" r="1.5" fill="#278EA5"/>
<circle cx="45.5" cy="181.5" r="1.5" fill="#278EA5"/>
<circle cx="54.5" cy="181.5" r="1.5" fill="#278EA5"/>
<circle cx="63.5" cy="181.5" r="1.5" fill="#278EA5"/>
<circle cx="72.5" cy="181.5" r="1.5" fill="#278EA5"/>
<circle cx="81.5" cy="181.5" r="1.5" fill="#278EA5"/>
<circle cx="90.5" cy="181.5" r="1.5" fill="#278EA5"/>
<circle cx="0.5" cy="190.5" r="1.5" fill="#278EA5"/>
<circle cx="9.5" cy="190.5" r="1.5" fill="#278EA5"/>
<circle cx="18.5" cy="190.5" r="1.5" fill="#278EA5"/>
<circle cx="27.5" cy="190.5" r="1.5" fill="#278EA5"/>
<circle cx="36.5" cy="190.5" r="1.5" fill="#278EA5"/>
<circle cx="45.5" cy="190.5" r="1.5" fill="#278EA5"/>
<circle cx="54.5" cy="190.5" r="1.5" fill="#278EA5"/>
<circle cx="63.5" cy="190.5" r="1.5" fill="#278EA5"/>
<circle cx="72.5" cy="190.5" r="1.5" fill="#278EA5"/>
<circle cx="81.5" cy="190.5" r="1.5" fill="#278EA5"/>
<circle cx="90.5" cy="190.5" r="1.5" fill="#278EA5"/>
</svg>
