<svg width="208" height="44" viewBox="0 0 208 44" fill="none" xmlns="http://www.w3.org/2000/svg">
<rect x="165" y="1" width="42" height="42" rx="21" fill="#1F4287" stroke="black" stroke-width="2"/>
<rect x="116" y="1" width="42" height="42" fill="#278EA5" stroke="black" stroke-width="2"/>
<rect x="99" y="1" width="10" height="42" fill="#278EA5" stroke="black" stroke-width="2"/>
<rect x="50" y="1" width="42" height="42" rx="6" fill="#278EA5" stroke="black" stroke-width="2"/>
<rect x="1" y="1" width="42" height="42" rx="21" fill="#1F4287" stroke="black" stroke-width="2"/>
<path d="M27.06 12.94V27.28C27.06 29.5 26.43 31.21 25.17 32.41C23.93 33.61 22.25 34.21 20.13 34.21C17.91 34.21 16.13 33.58 14.79 32.32C13.45 31.06 12.78 29.27 12.78 26.95H17.88C17.88 27.83 18.06 28.5 18.42 28.96C18.78 29.4 19.3 29.62 19.98 29.62C20.6 29.62 21.08 29.42 21.42 29.02C21.76 28.62 21.93 28.04 21.93 27.28V12.94H27.06Z" fill="white"/>
<path d="M82.71 11.94V33H77.58V20.37L72.87 33H68.73L63.99 20.34V33H58.86V11.94H64.92L70.83 26.52L76.68 11.94H82.71Z" fill="white"/>
<path d="M151.84 12.94L146.35 34H140.14L136.78 20.14L133.3 34H127.09L121.75 12.94H127.24L130.27 28.27L134.02 12.94H139.66L143.26 28.27L146.32 12.94H151.84Z" fill="white"/>
<path d="M185.75 11.94C187.97 11.94 189.91 12.38 191.57 13.26C193.23 14.14 194.51 15.38 195.41 16.98C196.33 18.56 196.79 20.39 196.79 22.47C196.79 24.53 196.33 26.36 195.41 27.96C194.51 29.56 193.22 30.8 191.54 31.68C189.88 32.56 187.95 33 185.75 33H177.86V11.94H185.75ZM185.42 28.56C187.36 28.56 188.87 28.03 189.95 26.97C191.03 25.91 191.57 24.41 191.57 22.47C191.57 20.53 191.03 19.02 189.95 17.94C188.87 16.86 187.36 16.32 185.42 16.32H182.99V28.56H185.42Z" fill="white"/>
</svg>
